<?xml version="1.0" standalone="no"?>
<!DOCTYPE svg PUBLIC "-//W3C//DTD SVG 20010904//EN"
 "http://www.w3.org/TR/2001/REC-SVG-20010904/DTD/svg10.dtd">
<svg version="1.0" xmlns="http://www.w3.org/2000/svg"
 width="700.000000pt" height="700.000000pt" viewBox="0 0 700.000000 700.000000"
 preserveAspectRatio="xMidYMid meet">
<metadata>
Created by potrace 1.14, written by Peter Selinger 2001-2017
</metadata>
<g transform="translate(0.000000,700.000000) scale(0.100000,-0.100000)"
fill="#000000" stroke="none">
<path d="M2258 6406 c-62 -17 -121 -57 -157 -107 -23 -31 -243 -679 -922
-2716 -853 -2559 -891 -2678 -886 -2731 11 -108 77 -200 176 -246 l46 -21
2985 0 2985 0 46 21 c99 46 165 138 176 246 5 53 -28 155 -741 2295 -552 1655
-754 2250 -774 2278 -35 45 -102 91 -156 106 -57 16 -153 6 -206 -21 -32 -15
-224 -200 -647 -623 -331 -331 -604 -599 -607 -597 -2 3 -227 452 -501 999
-273 546 -506 1006 -517 1022 -31 41 -90 77 -155 94 -67 18 -83 18 -145 1z
m567 -1915 c341 -682 442 -877 472 -906 56 -56 115 -79 198 -80 138 0 104 -28
752 618 320 320 584 579 586 576 3 -2 267 -791 587 -1754 321 -962 585 -1756
588 -1762 3 -10 -503 -13 -2508 -13 -2005 0 -2511 3 -2508 12 3 7 317 950 699
2096 382 1145 695 2082 696 2082 2 0 199 -391 438 -869z"/>
</g>
</svg>
